{
	"asset":{
		"generator":"Khronos glTF Blender I/O v4.3.47",
		"version":"2.0"
	},
	"scene":0,
	"scenes":[
		{
			"name":"Scene",
			"nodes":[
				0,
				1,
				2,
				3,
				4,
				5,
				6,
				7,
				8,
				9,
				10,
				11,
				12,
				13,
				14,
				15,
				16,
				17,
				18,
				19,
				20,
				21,
				22,
				23,
				24,
				25,
				26,
				27,
				28,
				29,
				30,
				31,
				32
			]
		}
	],
	"nodes":[
		{
			"mesh":0,
			"name":"board",
			"scale":[
				65.72827911376953,
				65.72827911376953,
				65.72827911376953
			],
			"translation":[
				0,
				-2.6038174629211426,
				0
			]
		},
		{
			"mesh":1,
			"name":"r2",
			"scale":[
				1,
				1.5238076448440552,
				1
			],
			"translation":[
				-8.043243408203125,
				0.015560150146484375,
				-8.042191505432129
			]
		},
		{
			"mesh":2,
			"name":"p8",
			"translation":[
				-8.092514038085938,
				0.03623684495687485,
				-5.771940231323242
			]
		},
		{
			"mesh":3,
			"name":"n2",
			"scale":[
				1,
				1.653607964515686,
				1
			],
			"translation":[
				-5.813026428222656,
				0.021039843559265137,
				-8.090680122375488
			]
		},
		{
			"mesh":4,
			"name":"k",
			"scale":[
				1,
				1.9263908863067627,
				1
			],
			"translation":[
				-1.0970382690429688,
				0.02274298667907715,
				-8.113486289978027
			]
		},
		{
			"mesh":5,
			"name":"b2",
			"scale":[
				1,
				1.653607964515686,
				1
			],
			"translation":[
				-3.380647659301758,
				0.021039843559265137,
				-8.068652153015137
			]
		},
		{
			"mesh":6,
			"name":"q",
			"scale":[
				1,
				1.9263908863067627,
				1
			],
			"translation":[
				1.144963264465332,
				0.01653110980987549,
				-8.131409645080566
			]
		},
		{
			"mesh":7,
			"name":"P8",
			"rotation":[
				0,
				-1,
				0,
				7.549790126404332e-08
			],
			"translation":[
				8.058300971984863,
				0.03623684495687485,
				5.7959489822387695
			]
		},
		{
			"mesh":8,
			"name":"N2",
			"rotation":[
				0,
				-1,
				0,
				7.549790126404332e-08
			],
			"scale":[
				1,
				1.653607964515686,
				1
			],
			"translation":[
				5.778813362121582,
				0.021039843559265137,
				8.114688873291016
			]
		},
		{
			"mesh":9,
			"name":"K",
			"rotation":[
				0,
				-1,
				0,
				7.549790126404332e-08
			],
			"scale":[
				1,
				1.9263908863067627,
				1
			],
			"translation":[
				-1.1166136264801025,
				0.029990434646606445,
				8.007767677307129
			]
		},
		{
			"mesh":10,
			"name":"B2",
			"rotation":[
				0,
				-1,
				0,
				7.549790126404332e-08
			],
			"scale":[
				1,
				1.653607964515686,
				1
			],
			"translation":[
				3.3464348316192627,
				0.010686397552490234,
				8.092660903930664
			]
		},
		{
			"mesh":11,
			"name":"Q",
			"rotation":[
				0,
				-1,
				0,
				7.549790126404332e-08
			],
			"scale":[
				1,
				1.9263908863067627,
				1
			],
			"translation":[
				1.1818828582763672,
				0.020258069038391113,
				8.129473686218262
			]
		},
		{
			"mesh":10,
			"name":"B1",
			"rotation":[
				0,
				-1,
				0,
				7.549790126404332e-08
			],
			"scale":[
				1,
				1.653607964515686,
				1
			],
			"translation":[
				-3.4513394832611084,
				0.010686397552490234,
				8.066715240478516
			]
		},
		{
			"mesh":8,
			"name":"N1",
			"rotation":[
				0,
				-1,
				0,
				7.549790126404332e-08
			],
			"scale":[
				1,
				1.653607964515686,
				1
			],
			"translation":[
				-5.7410783767700195,
				0.01586318016052246,
				8.03685188293457
			]
		},
		{
			"mesh":7,
			"name":"P1",
			"rotation":[
				0,
				-1,
				0,
				7.549790126404332e-08
			],
			"translation":[
				-8.028035163879395,
				0.03623684495687485,
				5.770003318786621
			]
		},
		{
			"mesh":7,
			"name":"P2",
			"rotation":[
				0,
				-1,
				0,
				7.549790126404332e-08
			],
			"translation":[
				-5.7967047691345215,
				0.03623684495687485,
				5.770003318786621
			]
		},
		{
			"mesh":7,
			"name":"P3",
			"rotation":[
				0,
				-1,
				0,
				7.549790126404332e-08
			],
			"translation":[
				-3.4615914821624756,
				0.03623684495687485,
				5.770003318786621
			]
		},
		{
			"mesh":7,
			"name":"P4",
			"rotation":[
				0,
				-1,
				0,
				7.549790126404332e-08
			],
			"translation":[
				-1.1264781951904297,
				0.03623684495687485,
				5.744057655334473
			]
		},
		{
			"mesh":7,
			"name":"P5",
			"rotation":[
				0,
				-1,
				0,
				7.549790126404332e-08
			],
			"translation":[
				1.1307978630065918,
				0.03623684495687485,
				5.770003318786621
			]
		},
		{
			"mesh":7,
			"name":"P6",
			"rotation":[
				0,
				-1,
				0,
				7.549790126404332e-08
			],
			"translation":[
				3.43996524810791,
				0.03623684495687485,
				5.7959489822387695
			]
		},
		{
			"mesh":7,
			"name":"P7",
			"rotation":[
				0,
				-1,
				0,
				7.549790126404332e-08
			],
			"translation":[
				5.775078773498535,
				0.03623684495687485,
				5.770003318786621
			]
		},
		{
			"mesh":5,
			"name":"b1",
			"scale":[
				1,
				1.653607964515686,
				1
			],
			"translation":[
				3.5312867164611816,
				0.021039843559265137,
				-8.068652153015137
			]
		},
		{
			"mesh":3,
			"name":"n1",
			"scale":[
				1,
				1.653607964515686,
				1
			],
			"translation":[
				5.769134521484375,
				0.014827847480773926,
				-8.01595687866211
			]
		},
		{
			"mesh":1,
			"name":"r1",
			"scale":[
				1,
				1.5238076448440552,
				1
			],
			"translation":[
				8.171781539916992,
				0.015560150146484375,
				-8.079553604125977
			]
		},
		{
			"mesh":2,
			"name":"p7",
			"translation":[
				-5.813443660736084,
				0.03623684495687485,
				-5.809301853179932
			]
		},
		{
			"mesh":2,
			"name":"p6",
			"translation":[
				-3.497011423110962,
				0.03623684495687485,
				-5.7345781326293945
			]
		},
		{
			"mesh":2,
			"name":"p5",
			"translation":[
				-1.2179410457611084,
				0.03623684495687485,
				-5.809301853179932
			]
		},
		{
			"mesh":2,
			"name":"p4",
			"translation":[
				1.2105765342712402,
				0.03623684495687485,
				-5.7345781326293945
			]
		},
		{
			"mesh":2,
			"name":"p3",
			"translation":[
				3.5270087718963623,
				0.03623684495687485,
				-5.771939754486084
			]
		},
		{
			"mesh":2,
			"name":"p2",
			"translation":[
				5.806078910827637,
				0.03623684495687485,
				-5.809301376342773
			]
		},
		{
			"mesh":2,
			"name":"p1",
			"translation":[
				8.085149765014648,
				0.03623684495687485,
				-5.809301376342773
			]
		},
		{
			"mesh":12,
			"name":"R2",
			"scale":[
				1,
				1.5238076448440552,
				1
			],
			"translation":[
				8.065168380737305,
				0.023842811584472656,
				8.096992492675781
			]
		},
		{
			"mesh":12,
			"name":"R1",
			"scale":[
				1,
				1.5238076448440552,
				1
			],
			"translation":[
				-8.050935745239258,
				0.039372920989990234,
				8.020066261291504
			]
		}
	],
	"materials":[
		{
			"doubleSided":true,
			"name":"Material",
			"normalTexture":{
				"index":0
			},
			"pbrMetallicRoughness":{
				"baseColorTexture":{
					"index":1
				},
				"metallicFactor":0,
				"metallicRoughnessTexture":{
					"index":2
				}
			}
		},
		{
			"doubleSided":true,
			"name":"Chrome",
			"normalTexture":{
				"index":3
			},
			"pbrMetallicRoughness":{
				"baseColorTexture":{
					"index":4
				},
				"metallicRoughnessTexture":{
					"index":5
				}
			}
		},
		{
			"doubleSided":true,
			"name":"ChromeRought",
			"normalTexture":{
				"index":6
			},
			"pbrMetallicRoughness":{
				"baseColorTexture":{
					"index":7
				},
				"metallicRoughnessTexture":{
					"index":8
				}
			}
		},
		{
			"doubleSided":true,
			"name":"Wood",
			"normalTexture":{
				"index":9
			},
			"pbrMetallicRoughness":{
				"baseColorTexture":{
					"index":10
				},
				"metallicRoughnessTexture":{
					"index":11
				}
			}
		}
	],
	"meshes":[
		{
			"name":"Object_0",
			"primitives":[
				{
					"attributes":{
						"POSITION":0,
						"NORMAL":1,
						"TEXCOORD_0":2,
						"TEXCOORD_1":3,
						"TEXCOORD_2":4,
						"TEXCOORD_3":5
					},
					"indices":6,
					"material":0
				}
			]
		},
		{
			"name":"Cylinder.058",
			"primitives":[
				{
					"attributes":{
						"POSITION":7,
						"NORMAL":8,
						"TEXCOORD_0":9
					},
					"indices":10,
					"material":1
				}
			]
		},
		{
			"name":"Cylinder.059",
			"primitives":[
				{
					"attributes":{
						"POSITION":11,
						"NORMAL":12,
						"TEXCOORD_0":13
					},
					"indices":14,
					"material":1
				}
			]
		},
		{
			"name":"Cylinder.060",
			"primitives":[
				{
					"attributes":{
						"POSITION":15,
						"NORMAL":16,
						"TEXCOORD_0":17
					},
					"indices":18,
					"material":2
				}
			]
		},
		{
			"name":"Cylinder.061",
			"primitives":[
				{
					"attributes":{
						"POSITION":19,
						"NORMAL":20,
						"TEXCOORD_0":21
					},
					"indices":22,
					"material":1
				}
			]
		},
		{
			"name":"Cylinder.062",
			"primitives":[
				{
					"attributes":{
						"POSITION":23,
						"NORMAL":24,
						"TEXCOORD_0":25
					},
					"indices":26,
					"material":2
				}
			]
		},
		{
			"name":"Cylinder.063",
			"primitives":[
				{
					"attributes":{
						"POSITION":27,
						"NORMAL":28,
						"TEXCOORD_0":29
					},
					"indices":30,
					"material":1
				}
			]
		},
		{
			"name":"Cylinder.065",
			"primitives":[
				{
					"attributes":{
						"POSITION":31,
						"NORMAL":32,
						"TEXCOORD_0":33
					},
					"indices":14,
					"material":3
				}
			]
		},
		{
			"name":"Cylinder.066",
			"primitives":[
				{
					"attributes":{
						"POSITION":34,
						"NORMAL":35,
						"TEXCOORD_0":36
					},
					"indices":18,
					"material":3
				}
			]
		},
		{
			"name":"Cylinder.067",
			"primitives":[
				{
					"attributes":{
						"POSITION":37,
						"NORMAL":38,
						"TEXCOORD_0":39
					},
					"indices":22,
					"material":3
				}
			]
		},
		{
			"name":"Cylinder.068",
			"primitives":[
				{
					"attributes":{
						"POSITION":40,
						"NORMAL":41,
						"TEXCOORD_0":42
					},
					"indices":26,
					"material":3
				}
			]
		},
		{
			"name":"Cylinder.069",
			"primitives":[
				{
					"attributes":{
						"POSITION":43,
						"NORMAL":44,
						"TEXCOORD_0":45
					},
					"indices":46,
					"material":3
				}
			]
		},
		{
			"name":"Cylinder.032",
			"primitives":[
				{
					"attributes":{
						"POSITION":47,
						"NORMAL":48,
						"TEXCOORD_0":49
					},
					"indices":50,
					"material":3
				}
			]
		}
	],
	"textures":[
		{
			"sampler":0,
			"source":0
		},
		{
			"sampler":0,
			"source":1
		},
		{
			"sampler":0,
			"source":2
		},
		{
			"sampler":0,
			"source":3
		},
		{
			"sampler":0,
			"source":4
		},
		{
			"sampler":0,
			"source":5
		},
		{
			"sampler":0,
			"source":6
		},
		{
			"sampler":0,
			"source":7
		},
		{
			"sampler":0,
			"source":8
		},
		{
			"sampler":0,
			"source":9
		},
		{
			"sampler":0,
			"source":10
		},
		{
			"sampler":0,
			"source":11
		}
	],
	"images":[
		{
			"mimeType":"image/png",
			"name":"Image_2",
			"uri":"Image_2.png"
		},
		{
			"mimeType":"image/png",
			"name":"Image_03",
			"uri":"Image_03.png"
		},
		{
			"mimeType":"image/png",
			"name":"Image_02",
			"uri":"Image_02.png"
		},
		{
			"mimeType":"image/png",
			"name":"Poliigon_MetalSteelBrushed_7174_Normal",
			"uri":"Poliigon_MetalSteelBrushed_7174_Normal.png"
		},
		{
			"mimeType":"image/jpeg",
			"name":"Poliigon_MetalSteelBrushed_7174_BaseColor",
			"uri":"Poliigon_MetalSteelBrushed_7174_BaseColor.jpg"
		},
		{
			"mimeType":"image/png",
			"name":"Poliigon_MetalSteelBrushed_7174_Metallic-Poliigon_MetalSteelBrushed_7174_Roughness",
			"uri":"Poliigon_MetalSteelBrushed_7174_Metallic-Poliigon_MetalSteelBrushed_7174_Roughness.png"
		},
		{
			"mimeType":"image/png",
			"name":"Poliigon_MetalGalvanizedZinc_7184_Normal",
			"uri":"Poliigon_MetalGalvanizedZinc_7184_Normal.png"
		},
		{
			"mimeType":"image/jpeg",
			"name":"Poliigon_MetalGalvanizedZinc_7184_BaseColor",
			"uri":"Poliigon_MetalGalvanizedZinc_7184_BaseColor.jpg"
		},
		{
			"mimeType":"image/png",
			"name":"Poliigon_MetalGalvanizedZinc_7184_Metallic-Poliigon_MetalGalvanizedZinc_7184_Roughness",
			"uri":"Poliigon_MetalGalvanizedZinc_7184_Metallic-Poliigon_MetalGalvanizedZinc_7184_Roughness.png"
		},
		{
			"mimeType":"image/png",
			"name":"Poliigon_WoodVeneerOak_7760_Normal",
			"uri":"Poliigon_WoodVeneerOak_7760_Normal.png"
		},
		{
			"mimeType":"image/jpeg",
			"name":"Poliigon_WoodVeneerOak_7760_BaseColor",
			"uri":"Poliigon_WoodVeneerOak_7760_BaseColor.jpg"
		},
		{
			"mimeType":"image/png",
			"name":"Poliigon_WoodVeneerOak_7760_Metallic-Poliigon_WoodVeneerOak_7760_Roughness",
			"uri":"Poliigon_WoodVeneerOak_7760_Metallic-Poliigon_WoodVeneerOak_7760_Roughness.png"
		}
	],
	"accessors":[
		{
			"bufferView":0,
			"componentType":5126,
			"count":272,
			"max":[
				0.17499999701976776,
				0.03999999538064003,
				0.17499999701976776
			],
			"min":[
				-0.17499999701976776,
				-2.255546860396862e-10,
				-0.17499999701976776
			],
			"type":"VEC3"
		},
		{
			"bufferView":1,
			"componentType":5126,
			"count":272,
			"type":"VEC3"
		},
		{
			"bufferView":2,
			"componentType":5126,
			"count":272,
			"type":"VEC2"
		},
		{
			"bufferView":3,
			"componentType":5126,
			"count":272,
			"type":"VEC2"
		},
		{
			"bufferView":4,
			"componentType":5126,
			"count":272,
			"type":"VEC2"
		},
		{
			"bufferView":5,
			"componentType":5126,
			"count":272,
			"type":"VEC2"
		},
		{
			"bufferView":6,
			"componentType":5123,
			"count":996,
			"type":"SCALAR"
		},
		{
			"bufferView":7,
			"componentType":5126,
			"count":2058,
			"max":[
				1,
				2.459219217300415,
				1
			],
			"min":[
				-1,
				0.003834247589111328,
				-1
			],
			"type":"VEC3"
		},
		{
			"bufferView":8,
			"componentType":5126,
			"count":2058,
			"type":"VEC3"
		},
		{
			"bufferView":9,
			"componentType":5126,
			"count":2058,
			"type":"VEC2"
		},
		{
			"bufferView":10,
			"componentType":5123,
			"count":3879,
			"type":"SCALAR"
		},
		{
			"bufferView":11,
			"componentType":5126,
			"count":778,
			"max":[
				0.9999999403953552,
				2.672152519226074,
				0.9999999403953552
			],
			"min":[
				-0.9999998807907104,
				-0.012597694993019104,
				-0.9999998807907104
			],
			"type":"VEC3"
		},
		{
			"bufferView":12,
			"componentType":5126,
			"count":778,
			"type":"VEC3"
		},
		{
			"bufferView":13,
			"componentType":5126,
			"count":778,
			"type":"VEC2"
		},
		{
			"bufferView":14,
			"componentType":5123,
			"count":3066,
			"type":"SCALAR"
		},
		{
			"bufferView":15,
			"componentType":5126,
			"count":688,
			"max":[
				0.9999998211860657,
				2.165525436401367,
				1.0000026226043701
			],
			"min":[
				-0.9999998211860657,
				0.0007721781730651855,
				-0.9999969601631165
			],
			"type":"VEC3"
		},
		{
			"bufferView":16,
			"componentType":5126,
			"count":688,
			"type":"VEC3"
		},
		{
			"bufferView":17,
			"componentType":5126,
			"count":688,
			"type":"VEC2"
		},
		{
			"bufferView":18,
			"componentType":5123,
			"count":2112,
			"type":"SCALAR"
		},
		{
			"bufferView":19,
			"componentType":5126,
			"count":996,
			"max":[
				1,
				2.5195631980895996,
				1
			],
			"min":[
				-1,
				0.002881288528442383,
				-1
			],
			"type":"VEC3"
		},
		{
			"bufferView":20,
			"componentType":5126,
			"count":996,
			"type":"VEC3"
		},
		{
			"bufferView":21,
			"componentType":5126,
			"count":996,
			"type":"VEC2"
		},
		{
			"bufferView":22,
			"componentType":5123,
			"count":2928,
			"type":"SCALAR"
		},
		{
			"bufferView":23,
			"componentType":5126,
			"count":442,
			"max":[
				0.9999998807907104,
				2.3984415531158447,
				1.0000017881393433
			],
			"min":[
				-0.9999998807907104,
				-0.0007303953170776367,
				-0.9999979734420776
			],
			"type":"VEC3"
		},
		{
			"bufferView":24,
			"componentType":5126,
			"count":442,
			"type":"VEC3"
		},
		{
			"bufferView":25,
			"componentType":5126,
			"count":442,
			"type":"VEC2"
		},
		{
			"bufferView":26,
			"componentType":5123,
			"count":1284,
			"type":"SCALAR"
		},
		{
			"bufferView":27,
			"componentType":5126,
			"count":578,
			"max":[
				1,
				2.4962892532348633,
				1
			],
			"min":[
				-1,
				0.006105899810791016,
				-1
			],
			"type":"VEC3"
		},
		{
			"bufferView":28,
			"componentType":5126,
			"count":578,
			"type":"VEC3"
		},
		{
			"bufferView":29,
			"componentType":5126,
			"count":578,
			"type":"VEC2"
		},
		{
			"bufferView":30,
			"componentType":5123,
			"count":1608,
			"type":"SCALAR"
		},
		{
			"bufferView":31,
			"componentType":5126,
			"count":778,
			"max":[
				0.9999999403953552,
				2.672152519226074,
				0.9999999403953552
			],
			"min":[
				-0.9999998807907104,
				-0.012597694993019104,
				-0.9999998807907104
			],
			"type":"VEC3"
		},
		{
			"bufferView":32,
			"componentType":5126,
			"count":778,
			"type":"VEC3"
		},
		{
			"bufferView":33,
			"componentType":5126,
			"count":778,
			"type":"VEC2"
		},
		{
			"bufferView":34,
			"componentType":5126,
			"count":688,
			"max":[
				0.9999998211860657,
				2.1709351539611816,
				1.0000026226043701
			],
			"min":[
				-0.9999998211860657,
				0.006181657314300537,
				-0.9999969601631165
			],
			"type":"VEC3"
		},
		{
			"bufferView":35,
			"componentType":5126,
			"count":688,
			"type":"VEC3"
		},
		{
			"bufferView":36,
			"componentType":5126,
			"count":688,
			"type":"VEC2"
		},
		{
			"bufferView":37,
			"componentType":5126,
			"count":996,
			"max":[
				1,
				2.5196919441223145,
				1
			],
			"min":[
				-1,
				0.0030100345611572266,
				-1
			],
			"type":"VEC3"
		},
		{
			"bufferView":38,
			"componentType":5126,
			"count":996,
			"type":"VEC3"
		},
		{
			"bufferView":39,
			"componentType":5126,
			"count":996,
			"type":"VEC2"
		},
		{
			"bufferView":40,
			"componentType":5126,
			"count":442,
			"max":[
				0.9999998807907104,
				2.3999440670013428,
				1.0000017881393433
			],
			"min":[
				-0.9999998807907104,
				0.0007721185684204102,
				-0.9999979734420776
			],
			"type":"VEC3"
		},
		{
			"bufferView":41,
			"componentType":5126,
			"count":442,
			"type":"VEC3"
		},
		{
			"bufferView":42,
			"componentType":5126,
			"count":442,
			"type":"VEC2"
		},
		{
			"bufferView":43,
			"componentType":5126,
			"count":578,
			"max":[
				1,
				2.4978370666503906,
				1
			],
			"min":[
				-1,
				0.007653713226318359,
				-1
			],
			"type":"VEC3"
		},
		{
			"bufferView":44,
			"componentType":5126,
			"count":578,
			"type":"VEC3"
		},
		{
			"bufferView":45,
			"componentType":5126,
			"count":578,
			"type":"VEC2"
		},
		{
			"bufferView":46,
			"componentType":5123,
			"count":1608,
			"type":"SCALAR"
		},
		{
			"bufferView":47,
			"componentType":5126,
			"count":2067,
			"max":[
				1,
				2.4564990997314453,
				1
			],
			"min":[
				-1,
				0.0011139274574816227,
				-1
			],
			"type":"VEC3"
		},
		{
			"bufferView":48,
			"componentType":5126,
			"count":2067,
			"type":"VEC3"
		},
		{
			"bufferView":49,
			"componentType":5126,
			"count":2067,
			"type":"VEC2"
		},
		{
			"bufferView":50,
			"componentType":5123,
			"count":3879,
			"type":"SCALAR"
		}
	],
	"bufferViews":[
		{
			"buffer":0,
			"byteLength":3264,
			"byteOffset":0,
			"target":34962
		},
		{
			"buffer":0,
			"byteLength":3264,
			"byteOffset":3264,
			"target":34962
		},
		{
			"buffer":0,
			"byteLength":2176,
			"byteOffset":6528,
			"target":34962
		},
		{
			"buffer":0,
			"byteLength":2176,
			"byteOffset":8704,
			"target":34962
		},
		{
			"buffer":0,
			"byteLength":2176,
			"byteOffset":10880,
			"target":34962
		},
		{
			"buffer":0,
			"byteLength":2176,
			"byteOffset":13056,
			"target":34962
		},
		{
			"buffer":0,
			"byteLength":1992,
			"byteOffset":15232,
			"target":34963
		},
		{
			"buffer":0,
			"byteLength":24696,
			"byteOffset":17224,
			"target":34962
		},
		{
			"buffer":0,
			"byteLength":24696,
			"byteOffset":41920,
			"target":34962
		},
		{
			"buffer":0,
			"byteLength":16464,
			"byteOffset":66616,
			"target":34962
		},
		{
			"buffer":0,
			"byteLength":7758,
			"byteOffset":83080,
			"target":34963
		},
		{
			"buffer":0,
			"byteLength":9336,
			"byteOffset":90840,
			"target":34962
		},
		{
			"buffer":0,
			"byteLength":9336,
			"byteOffset":100176,
			"target":34962
		},
		{
			"buffer":0,
			"byteLength":6224,
			"byteOffset":109512,
			"target":34962
		},
		{
			"buffer":0,
			"byteLength":6132,
			"byteOffset":115736,
			"target":34963
		},
		{
			"buffer":0,
			"byteLength":8256,
			"byteOffset":121868,
			"target":34962
		},
		{
			"buffer":0,
			"byteLength":8256,
			"byteOffset":130124,
			"target":34962
		},
		{
			"buffer":0,
			"byteLength":5504,
			"byteOffset":138380,
			"target":34962
		},
		{
			"buffer":0,
			"byteLength":4224,
			"byteOffset":143884,
			"target":34963
		},
		{
			"buffer":0,
			"byteLength":11952,
			"byteOffset":148108,
			"target":34962
		},
		{
			"buffer":0,
			"byteLength":11952,
			"byteOffset":160060,
			"target":34962
		},
		{
			"buffer":0,
			"byteLength":7968,
			"byteOffset":172012,
			"target":34962
		},
		{
			"buffer":0,
			"byteLength":5856,
			"byteOffset":179980,
			"target":34963
		},
		{
			"buffer":0,
			"byteLength":5304,
			"byteOffset":185836,
			"target":34962
		},
		{
			"buffer":0,
			"byteLength":5304,
			"byteOffset":191140,
			"target":34962
		},
		{
			"buffer":0,
			"byteLength":3536,
			"byteOffset":196444,
			"target":34962
		},
		{
			"buffer":0,
			"byteLength":2568,
			"byteOffset":199980,
			"target":34963
		},
		{
			"buffer":0,
			"byteLength":6936,
			"byteOffset":202548,
			"target":34962
		},
		{
			"buffer":0,
			"byteLength":6936,
			"byteOffset":209484,
			"target":34962
		},
		{
			"buffer":0,
			"byteLength":4624,
			"byteOffset":216420,
			"target":34962
		},
		{
			"buffer":0,
			"byteLength":3216,
			"byteOffset":221044,
			"target":34963
		},
		{
			"buffer":0,
			"byteLength":9336,
			"byteOffset":224260,
			"target":34962
		},
		{
			"buffer":0,
			"byteLength":9336,
			"byteOffset":233596,
			"target":34962
		},
		{
			"buffer":0,
			"byteLength":6224,
			"byteOffset":242932,
			"target":34962
		},
		{
			"buffer":0,
			"byteLength":8256,
			"byteOffset":249156,
			"target":34962
		},
		{
			"buffer":0,
			"byteLength":8256,
			"byteOffset":257412,
			"target":34962
		},
		{
			"buffer":0,
			"byteLength":5504,
			"byteOffset":265668,
			"target":34962
		},
		{
			"buffer":0,
			"byteLength":11952,
			"byteOffset":271172,
			"target":34962
		},
		{
			"buffer":0,
			"byteLength":11952,
			"byteOffset":283124,
			"target":34962
		},
		{
			"buffer":0,
			"byteLength":7968,
			"byteOffset":295076,
			"target":34962
		},
		{
			"buffer":0,
			"byteLength":5304,
			"byteOffset":303044,
			"target":34962
		},
		{
			"buffer":0,
			"byteLength":5304,
			"byteOffset":308348,
			"target":34962
		},
		{
			"buffer":0,
			"byteLength":3536,
			"byteOffset":313652,
			"target":34962
		},
		{
			"buffer":0,
			"byteLength":6936,
			"byteOffset":317188,
			"target":34962
		},
		{
			"buffer":0,
			"byteLength":6936,
			"byteOffset":324124,
			"target":34962
		},
		{
			"buffer":0,
			"byteLength":4624,
			"byteOffset":331060,
			"target":34962
		},
		{
			"buffer":0,
			"byteLength":3216,
			"byteOffset":335684,
			"target":34963
		},
		{
			"buffer":0,
			"byteLength":24804,
			"byteOffset":338900,
			"target":34962
		},
		{
			"buffer":0,
			"byteLength":24804,
			"byteOffset":363704,
			"target":34962
		},
		{
			"buffer":0,
			"byteLength":16536,
			"byteOffset":388508,
			"target":34962
		},
		{
			"buffer":0,
			"byteLength":7758,
			"byteOffset":405044,
			"target":34963
		}
	],
	"samplers":[
		{
			"magFilter":9729,
			"minFilter":9987
		}
	],
	"buffers":[
		{
			"byteLength":412804,
			"uri":"botw-chess-011.bin"
		}
	]
}
